# xmcd
#
# Track frame offsets: 
#        150
#        12712
#        27030
#        39300
#        52275
#        66130
#        77722
#        88872
#        99512
#        110885
#        122272
#        134860
#        146220
#        160080
#
# Disc length: 2288 seconds
#
# Revision: 2
# Processed by: cddbd v1.5.2PL0 Copyright (c) Steve Scherf et al.
# Submitted via: ExactAudioCopyFreeDBPlugin 1.0
#
DISCID=c908ee0e
DTITLE=Bill Doggett - Bill Doggett and His Combo:  All His Hits
DYEAR=1995
DGENRE=Rhythm and Blues
TTITLE0=Big Dog Blues (Part One)
TTITLE1=Moondust
TTITLE2=High Heels
TTITLE3=As You Desire Me
TTITLE4=Honky Tonk
TTITLE5=Slow Walk
TTITLE6=Sweet Lorraine
TTITLE7=Don't Get Around Much Anymore
TTITLE8=Ram-Bunk-Shush
TTITLE9=Soft
TTITLE10=Blip Blop
TTITLE11=Hold It
TTITLE12=Smokie (Part Two)
TTITLE13=Honky Tonk (Part Two)
EXTD=
EXTT0=
EXTT1=
EXTT2=
EXTT3=
EXTT4=
EXTT5=
EXTT6=
EXTT7=
EXTT8=
EXTT9=
EXTT10=
EXTT11=
EXTT12=
EXTT13=
PLAYORDER=
